<svg width="124" height="207" viewBox="0 0 124 207" fill="none" xmlns="http://www.w3.org/2000/svg">
<path d="M9.6123 173.557H7.86719V175.53H9.6123V173.557Z" fill="white"/>
<path d="M6.84723 173.557H5.08203V175.53H6.84723V173.557Z" fill="white"/>
<path d="M23.2063 175.533H21.2355V183.067H14.1259V175.533H12.1484V183.067H5.89299C4.50065 183.067 3.54553 182.892 3.00751 182.549C2.47621 182.199 2.20688 181.627 2.20688 180.84C2.20688 180.363 2.2899 179.556 2.45593 178.412L2.6441 176.899L1.08359 176.817C0.922174 177.564 0.774561 178.351 0.639893 179.185C0.505224 180.012 0.445312 180.719 0.445312 181.29C0.445312 182.205 0.647302 182.911 1.05776 183.423C1.46177 183.934 2.07342 184.297 2.87387 184.499C3.68096 184.701 4.71685 184.801 5.99482 184.801H23.2073L23.2063 175.533Z" fill="white"/>
<path d="M15.875 188.398H17.6403V186.438H15.875V188.398Z" fill="white"/>
<path d="M18.6562 188.398H20.4014V186.438H18.6562V188.398Z" fill="white"/>
<path d="M32.4472 183.068H30.2209C29.1514 183.068 28.2971 182.813 28.1222 182.12C27.8197 180.956 27.8602 178.649 28.2974 178.071C28.7347 177.485 29.5149 176.887 30.6382 176.887C31.163 176.887 31.7683 176.934 32.4476 177.028L32.4472 183.068ZM54.0317 183.068H48.5633V181.198C48.5633 179.961 48.281 178.884 47.7229 177.97C47.1649 177.055 46.223 176.598 44.9047 176.598H40.1425L40.8288 175.333C41.374 174.311 42.1068 173.12 43.035 171.755L41.6223 170.961C41.1381 171.533 40.6471 172.152 40.1561 172.831C39.6653 173.503 39.2881 174.095 39.0194 174.593L37.876 176.786L39.0664 178.333H44.6761C45.3282 178.347 45.8129 178.636 46.1358 179.194C46.4521 179.752 46.6136 180.411 46.6136 181.178V183.068H34.4189V175.891C29.8114 174.546 28.1231 175.898 27.511 176.342C26.7371 176.9 26.529 177.533 26.4079 178.427C26.3 179.268 26.0316 182.073 26.7243 183.357C27.2418 184.319 27.9687 184.804 29.5763 184.804H32.4282C32.4282 185.732 32.3451 186.438 32.1993 186.922C32.0444 187.407 31.8231 187.729 31.5335 187.891C31.2374 188.059 30.861 188.14 30.39 188.14C29.6567 188.14 28.6076 188.025 27.2489 187.81V189.546C28.8564 189.767 29.9528 189.875 30.5312 189.875C31.8496 189.875 32.7981 189.431 33.3698 188.543C33.9481 187.662 34.2847 186.411 34.3786 184.804H56.0103V171.203H54.0327L54.0317 183.068Z" fill="white"/>
<path d="M59.6289 184.805H61.5996V171.204H59.6289V184.805Z" fill="white"/>
<path d="M72.4265 171.653H70.668V173.633H72.4265V171.653Z" fill="white"/>
<path d="M75.1983 171.653H73.4531V173.633H75.1983V171.653Z" fill="white"/>
<path d="M103.444 183.068H98.3322C98.2317 182.543 98.2039 182.577 98.1366 181.924C98.072 181.319 98.0426 181.339 98.0426 180.727C98.0426 179.664 98.1431 178.507 98.3525 177.256C98.9244 177.128 99.5026 177.068 100.101 177.068C101.265 177.068 102.112 177.344 102.651 177.895C103.182 178.447 103.445 179.348 103.445 180.606L103.444 183.068ZM86.467 182.792C85.4311 182.146 84.6174 181.386 84.0255 180.498C83.4407 179.617 83.1445 178.702 83.1445 177.761C84.4023 177.317 85.5121 177.088 86.4673 177.088C87.4426 177.088 88.5659 177.317 89.8371 177.761C89.8371 178.702 89.541 179.61 88.9424 180.491C88.3502 181.373 87.523 182.133 86.467 182.792ZM75.3487 183.068H72.7388C71.8985 183.068 71.2322 182.96 70.7479 182.738C70.2636 182.523 69.9141 182.16 69.6986 181.655C69.6617 181.574 69.6248 181.474 69.5907 181.379C69.5169 181.13 69.4624 180.855 69.4227 180.532C69.4227 180.532 69.4227 180.525 69.4227 180.518C69.4227 179.677 69.5307 179.005 69.7391 178.507C69.9476 178.009 70.2907 177.653 70.7683 177.424C71.2461 177.202 71.8915 177.088 72.7121 177.088C73.3642 177.088 74.239 177.128 75.3488 177.209L75.3487 183.068ZM104.245 176.577C103.464 175.75 102.173 175.333 100.37 175.333C99.6103 175.333 98.8972 175.393 98.238 175.514C97.5785 175.635 97.0611 175.776 96.6911 175.924C96.5362 176.51 96.3949 177.243 96.2741 178.117C96.1459 178.998 96.0859 179.866 96.0859 180.727C96.0859 181.803 96.1865 181.951 96.382 183.068H90.638C90.174 183.068 89.7029 183.007 89.2185 182.899C89.8375 182.308 90.3689 181.675 90.7859 181.003C91.3845 180.027 91.7008 179.139 91.7275 178.332L91.8105 176.779C90.9628 176.335 90.0819 175.978 89.1604 175.716C88.2322 175.46 87.3308 175.332 86.4429 175.332C85.5546 175.332 84.6606 175.46 83.7526 175.716C82.844 175.978 81.9768 176.335 81.1427 176.779L81.2073 178.332C81.2442 179.139 81.5504 180.027 82.1557 181.003C82.579 181.695 83.1176 182.334 83.7431 182.933C83.3198 183.021 82.9029 183.068 82.4921 183.068H77.306V175.575C76.8218 175.521 76.0416 175.467 74.9788 175.413C73.9094 175.36 73.0685 175.332 72.4631 175.332C71.1986 175.332 70.2099 175.5 69.4902 175.83C68.7633 176.166 68.2458 176.711 67.9297 177.464C67.6945 178.029 67.546 178.735 67.4861 179.59C67.4584 179.892 67.4492 180.209 67.4492 180.538C67.4492 180.626 67.4492 180.699 67.4492 180.774C67.4953 181.312 67.5903 181.789 67.7111 182.199C67.7665 182.374 67.8255 182.542 67.8928 182.697C68.2295 183.45 68.7608 183.989 69.4937 184.311C70.1458 184.601 71.0138 184.762 72.09 184.796C72.245 184.803 72.3991 184.803 72.5605 184.803H82.5491C83.215 184.803 83.9009 184.721 84.6072 184.56C85.3137 184.392 85.9659 184.17 86.5578 183.888C87.1831 184.17 87.856 184.392 88.569 184.56C89.282 184.722 89.9748 184.803 90.6541 184.803H105.418V180.646C105.418 178.762 105.032 177.411 104.245 176.577Z" fill="white"/>
<path d="M122.194 176.121C121.575 175.596 120.714 175.334 119.618 175.334C119.006 175.334 118.239 175.401 117.297 175.529C116.362 175.657 115.521 175.812 114.775 175.986L114.839 177.359C117.099 177.137 118.532 177.029 119.144 177.029C120.503 177.029 121.182 177.681 121.182 178.993V183.069H110.38V171.204H108.402V184.805H123.14V178.784C123.14 177.533 122.819 176.646 122.194 176.121Z" fill="white"/>
<path d="M117.988 188.439H119.874V186.438H117.988V188.439Z" fill="white"/>
<path d="M4.14473 201.888L7.38679 196.856H5.75907L2.91391 201.282L1.83088 201.289V196.857H0.445312V206.872H1.83088V202.608L2.97436 202.589L5.91375 206.874H7.60199L4.14473 201.888Z" fill="white"/>
<path d="M13.9646 196.857V203.852C13.9646 204.511 13.7967 204.968 13.4601 205.244C13.1031 205.54 12.5318 205.681 11.7448 205.681C10.2987 205.681 9.65298 205.116 9.65298 203.852V196.857H8.25391V203.839C8.25391 204.921 8.55647 205.729 9.1551 206.24C9.74727 206.751 10.608 207 11.7784 207C12.9554 207 13.8164 206.751 14.4152 206.246C15.0267 205.728 15.3366 204.921 15.3366 203.838V196.856L13.9646 196.857Z" fill="white"/>
<path d="M26.7308 196.856L24.982 205.345L22.991 196.964H21.6323L19.6413 205.345L17.8858 196.856H16.4531L18.592 206.872H20.6704L22.3049 199.769L23.9529 206.872H26.0313L28.15 196.856H26.7308Z" fill="white"/>
<path d="M30.6566 202.836L32.1027 198.168H32.2844L33.7103 202.836H30.6566ZM33.3134 196.856H31.0602L28.0469 206.872H29.4525L30.2661 204.175H34.1L34.921 206.872H36.3268L33.3134 196.856Z" fill="white"/>
<path d="M37.3555 206.872H38.7479V196.856H37.3555V206.872Z" fill="white"/>
<path d="M39.6914 196.856V198.181H42.7585V206.872H44.1509V198.181H47.1911V196.856H39.6914Z" fill="white"/>
<path d="M58.648 196.856V203.852C58.648 204.511 58.48 204.968 58.1369 205.251C57.7938 205.54 57.2154 205.681 56.4284 205.681C54.9823 205.681 54.3366 205.116 54.3366 203.852V196.857H52.9375V203.839C52.9375 204.921 53.2401 205.729 53.8387 206.24C54.4235 206.744 55.3051 207 56.4553 207C57.6189 207 58.5067 206.744 59.0986 206.246C59.7111 205.735 60.0201 204.921 60.0201 203.838V196.856H58.648Z" fill="white"/>
<path d="M67.171 196.856V205.002L63.1958 196.856H61.1914V206.872H62.577V198.8L66.5589 206.872H68.5498V196.856H67.171Z" fill="white"/>
<path d="M69.7188 206.872H71.1042V196.856H69.7188V206.872Z" fill="white"/>
<path d="M78.6076 196.856L76.1996 205.567H75.9099L73.5018 196.856H72.0625L74.8607 206.872H77.2416L79.912 197.3L80.0402 196.857L78.6076 196.856Z" fill="white"/>
<path d="M87.3852 198.168V196.856H81.0625V206.872H87.3852V205.567H82.4481V202.426H86.5713V201.114H82.4481V198.168H87.3852Z" fill="white"/>
<path d="M90.0057 201.801V198.175H92.3936C93.0392 198.175 93.5101 198.316 93.7993 198.599C94.0816 198.889 94.23 199.353 94.23 199.992C94.23 201.243 93.6647 201.801 92.4073 201.801L90.0057 201.801ZM93.9136 202.863C94.7816 202.54 95.6422 201.76 95.6422 199.937C95.6422 198.901 95.3665 198.121 94.8149 197.61C94.2772 197.112 93.4628 196.856 92.3934 196.856H88.6133V206.872H90.0055V203.118H92.4742L94.4517 206.872H96.0121L93.9136 202.863Z" fill="white"/>
<path d="M103.32 202.391C103.112 202.027 102.775 201.731 102.325 201.53C101.914 201.342 101.37 201.187 100.643 201.052C99.897 200.905 99.3585 200.77 99.0491 200.648C98.8001 200.548 98.6323 200.42 98.5585 200.279C98.5032 200.164 98.4313 199.922 98.4313 199.411C98.4313 198.765 98.6535 198.025 100.362 198.025C100.826 198.025 101.68 198.108 102.985 198.254L103.334 198.291L103.482 196.979L103.139 196.933C102.016 196.778 101.101 196.704 100.348 196.704C99.2511 196.704 98.4171 196.933 97.8722 197.377C97.3004 197.847 97.0117 198.54 97.0117 199.448C97.0117 200.094 97.1196 200.598 97.3484 200.989C97.5771 201.385 97.9406 201.695 98.4179 201.896C98.8616 202.092 99.4806 202.253 100.261 202.387C100.853 202.487 101.31 202.602 101.613 202.736C101.855 202.837 102.023 202.965 102.103 203.113C102.168 203.227 102.238 203.442 102.238 203.852C102.238 205.104 101.653 205.655 100.335 205.655C99.7158 205.655 98.7809 205.572 97.5499 205.413L97.193 205.366L97.0454 206.692L97.8857 206.786C98.9014 206.914 99.7354 206.974 100.361 206.974C101.457 206.974 102.285 206.704 102.823 206.18C103.361 205.648 103.636 204.848 103.636 203.792C103.636 203.213 103.529 202.747 103.32 202.391Z" fill="white"/>
<path d="M104.668 206.872H106.054V196.856H104.668V206.872Z" fill="white"/>
<path d="M107.059 196.856V198.181H110.132V206.872H111.518V198.181H114.565V196.856H107.059Z" fill="white"/>
<path d="M121.508 196.856L119.1 201.121L116.699 196.856H115.078L118.408 202.634V206.872H119.813V202.634L123.129 196.856H121.508Z" fill="white"/>
<path d="M79.6244 116.957C80.4785 116.943 81.5548 116.971 82.4359 117.091C84.0502 117.32 85.5233 117.549 87.3528 117.475C87.1573 117.159 85.7453 116.829 85.3754 116.721C80.9697 115.443 75.1246 116.224 71.4924 117.374C70.8329 117.589 70.1336 117.724 69.7031 118.134C71.3242 118.45 74.277 117.824 75.8375 117.475C76.2609 117.374 78.8239 116.97 79.6244 116.957Z" fill="white"/>
<path d="M58.2656 116.433C61.7767 117.153 67.1038 118.128 70.3527 116.07C66.5321 115.821 62.0188 115.572 58.2656 116.433Z" fill="white"/>
<path d="M37.9375 116.95C38.6643 117.145 41.2064 118.215 42.8813 118.302C45.9014 118.464 51.7129 116.331 54.5245 116.473C55.1092 116.506 55.6678 116.896 56.2261 116.755C52.5468 114.468 45.5247 116.87 44.1123 117.138C42.693 117.408 37.9375 116.95 37.9375 116.95Z" fill="white"/>
<path d="M86.6875 116.055C88.2681 116.015 89.5596 116.21 90.2726 116.25C92.6537 116.365 95.1019 116.189 97.5368 116.432C99.7027 116.654 101.875 116.984 103.96 116.344C99.0973 114.4 89.8421 115.484 86.6875 116.055Z" fill="white"/>
<path d="M55.4566 104.067C54.2997 105.278 56.5665 107.262 56.5665 107.262L50.8358 106.912C51.0378 103.664 51.1992 101.451 52.1675 100.556C52.6389 100.119 53.533 99.6616 53.533 99.6616C53.533 99.6616 61.053 107.235 61.0328 107.558C58.1202 107.814 57.8175 104.666 55.4566 104.067ZM69.7163 89.2426C69.7163 89.2426 66.4405 108.594 66.407 108.688C66.0638 108.964 65.4317 109.058 64.9003 108.883C64.3552 108.352 64.0996 107.746 63.1986 107.558C62.9292 107.505 62.257 107.558 62.257 107.558L53.9501 99.4464C53.9501 99.4464 64.3892 92.5384 69.7163 89.2426ZM70.2272 88.9265C70.2272 88.9468 71.1891 88.3212 71.1556 88.3414C71.1371 88.3211 74.5052 99.11 74.5052 99.11C72.2922 101.626 69.992 104.39 68.492 107.625C68.028 107.787 67.6645 107.713 66.9785 107.659C66.9878 107.665 70.2138 88.8593 70.2272 88.9265ZM72.7094 87.406L76.3011 97.5357L74.8012 98.9348L71.6061 88.1391L72.7094 87.406ZM85.6708 79.4287C78.4737 87.2446 78.0028 96.2308 78.0028 96.2308L76.523 97.3541L72.9784 87.2042C72.9784 87.2042 85.7112 79.3345 85.6708 79.4287ZM83.2627 93.6143C82.9399 94.3408 76.2944 109.105 76.0725 109.273C75.8502 109.434 71.9693 109.199 71.5052 109.085C71.1289 108.984 69.0233 107.652 69.0233 107.652C71.6062 103.132 74.7474 97.8989 83.2627 93.6143ZM83.9758 93.1301L84.5808 92.713C84.5808 92.713 78.3524 108.991 78.2784 109.374C77.855 109.394 77.0406 109.388 76.6169 109.333C76.7654 108.741 83.7807 93.4193 83.9758 93.1301ZM85.0717 92.5715C85.4213 95.067 89.1144 107.107 88.9798 107.726C88.8387 108.398 88.1394 108.405 87.6211 108.587C87.1636 108.741 86.7403 108.943 86.2893 109.125C85.8457 109.306 85.4683 109.239 84.9776 109.28C82.9463 109.454 80.8209 109.777 78.7828 109.434C78.8658 109.441 84.0696 95.1342 84.7287 93.3517C84.7355 93.345 85.045 92.3765 85.0717 92.5715ZM86.4441 91.7845C86.4441 91.7845 91.2803 104.914 91.9932 107.652C92.067 107.934 89.9485 107.995 89.7266 107.854C89.4305 107.658 85.5629 92.2689 85.5629 92.2689C85.5629 92.2689 86.3095 91.7845 86.4441 91.7845ZM94.3674 86.8072C94.3674 86.8072 90.8226 101.571 90.8293 102.197C90.6144 101.934 87.224 92.5446 86.9415 91.4348C86.8954 91.4348 94.4144 86.8072 94.3674 86.8072ZM94.159 112.844C94.4753 112.172 94.9254 111.519 95.4168 110.894C96.1095 110.006 96.8899 109.172 97.4683 108.405C97.5421 108.311 97.9387 107.988 97.6565 107.84C96.3986 107.779 94.8852 107.968 93.7888 107.746C94.024 107.289 94.3403 106.831 94.6364 106.428C94.9527 105.997 95.2618 105.6 95.5848 105.203C96.2102 104.396 96.8628 103.569 97.5623 102.843C99.2708 103.636 102.123 103.482 101.907 101.047C100.387 101.248 99.7684 100.536 98.8873 100.098C97.226 102.318 95.3292 104.786 93.6948 106.898C93.466 107.188 93.3046 107.712 92.8471 107.652C92.0197 106.313 91.1117 102.849 91.0714 102.742C91.0253 102.607 95.1072 85.8319 95.1139 85.8453C95.1072 85.8315 86.8406 91.038 86.7935 91.038C86.4771 89.8945 86.0067 88.5291 85.6702 87.4462C85.7071 87.4462 83.5044 92.9617 83.5044 92.9617L78.2714 95.9818C78.2714 95.9818 79.5896 85.1323 87.4593 78.1101C87.5534 78.0299 87.6144 77.915 87.3653 77.915C84.2376 79.832 72.803 86.7735 72.7829 86.6659C72.7761 86.6253 71.209 81.749 71.2224 81.7894C71.3054 81.7488 69.978 88.287 69.931 88.3811C69.9771 88.3811 54.6825 97.8785 51.6826 100.199C50.2365 101.309 50.1893 107.463 50.1893 107.463L57.1578 107.84C57.7361 108.6 58.4425 109.273 59.0478 110.013C59.283 110.302 59.5183 110.598 59.7471 110.894C60.1105 111.358 60.46 111.842 60.7424 112.374C59.5855 113.006 58.5026 113.672 57.0632 113.88C52.3145 114.573 45.2923 112.118 41.418 114.674C44.1219 114.492 46.6039 113.954 48.6016 114.264C49.2205 114.358 52.0051 114.694 52.624 114.829C53.4642 115.01 54.9579 115.158 55.866 115.185C60.9645 115.293 66.2446 113.484 71.0337 114.069C73.3206 114.351 75.6546 114.99 77.807 114.862C81.076 114.674 84.1095 114.372 87.3448 114.23C92.9074 113.988 98.1875 113.329 103.696 113.981C101.618 112.017 97.4144 112.676 94.159 112.844Z" fill="white"/>
<path d="M88.7173 135.373C88.7173 136.241 88.4747 136.914 88.0042 137.371C87.5338 137.842 86.807 138.071 85.8518 138.071C84.9571 138.071 84.3049 137.687 83.8542 136.887C83.4032 136.086 83.1615 134.977 83.1412 133.584L83.4576 133.43C83.7602 133.315 84.1641 133.194 84.6952 133.066C85.2265 132.945 85.6638 132.885 86.0404 132.885C86.9084 132.885 87.574 133.093 88.0314 133.504C88.4825 133.907 88.7173 134.539 88.7173 135.373ZM88.9529 132.676C88.3007 132.078 87.3318 131.768 86.0741 131.768C85.6774 131.768 85.2061 131.835 84.6616 131.97C84.1303 132.098 83.6997 132.225 83.3768 132.36L83.1619 132.448C83.1988 131.21 83.4644 130.235 83.9754 129.542C84.5206 128.815 85.2602 128.459 86.2423 128.459C87.1839 128.459 88.166 128.52 89.1615 128.641L89.3164 128.661L89.4446 127.612L88.8598 127.517C88.0463 127.423 87.1917 127.383 86.324 127.383C84.9182 127.383 83.8219 127.874 83.0686 128.849C82.3215 129.818 81.9453 131.298 81.9453 133.248C81.9453 135.205 82.282 136.692 82.9408 137.661C83.6206 138.649 84.6492 139.154 86.0079 139.154C87.232 139.154 88.2074 138.817 88.8935 138.152C89.5797 137.492 89.9294 136.544 89.9294 135.34C89.9294 134.176 89.5989 133.282 88.9529 132.676Z" fill="white"/>
<path d="M54.3672 129.98L54.9188 130.888L57.885 128.937V138.999H59.0419V127.531H58.0263L54.3672 129.98Z" fill="white"/>
<path d="M69.4536 132.966L69.0367 133.1C68.0546 133.443 67.1735 133.612 66.4068 133.612C64.6781 133.612 63.8441 132.831 63.8441 131.224C63.8441 130.37 64.0865 129.683 64.5634 129.199C65.0412 128.708 65.7136 128.459 66.5544 128.459C68.4243 128.459 69.3729 129.932 69.4536 132.966ZM66.5006 127.383C65.7341 127.383 65.0544 127.538 64.476 127.854C63.8977 128.17 63.4402 128.621 63.1106 129.199C62.7943 129.771 62.6328 130.45 62.6328 131.224C62.6328 132.381 62.9418 133.262 63.561 133.84C64.1735 134.419 65.1148 134.708 66.3524 134.708C67.2739 134.708 68.3098 134.499 69.4264 134.076C69.3434 136.766 68.2695 138.071 66.1641 138.071C65.2694 138.071 64.3144 138.01 63.3323 137.89L63.1709 137.869L63.0501 138.912L63.6155 138.986C64.5572 139.093 65.4181 139.154 66.1647 139.154C67.6647 139.154 68.7947 138.69 69.5413 137.782C70.2746 136.887 70.6511 135.441 70.6511 133.484C70.6511 129.434 69.2517 127.383 66.5006 127.383Z" fill="white"/>
<path d="M79.0293 135.373C79.0293 136.241 78.7867 136.913 78.3163 137.371C77.845 137.842 77.1189 138.07 76.1639 138.07C75.2692 138.07 74.6169 137.687 74.1663 136.887C73.7153 136.086 73.4736 134.976 73.4533 133.584L73.776 133.429C74.0721 133.315 74.4752 133.194 75.007 133.066C75.5383 132.945 75.9756 132.884 76.3522 132.884C77.2202 132.884 77.8926 133.093 78.3432 133.503C78.8007 133.907 79.0293 134.539 79.0293 135.373ZM76.3861 131.768C75.9895 131.768 75.5181 131.835 74.9735 131.97C74.4422 132.098 74.0116 132.225 73.6888 132.36L73.474 132.448C73.5109 131.21 73.7764 130.235 74.2948 129.542C74.8326 128.815 75.5728 128.459 76.5549 128.459C77.4966 128.459 78.4787 128.52 79.4741 128.641L79.6291 128.661L79.7573 127.612L79.1725 127.517C78.3589 127.423 77.5042 127.383 76.6365 127.383C75.2307 127.383 74.1344 127.874 73.3811 128.849C72.634 129.818 72.2578 131.298 72.2578 133.248C72.2578 135.205 72.5945 136.692 73.2533 137.661C73.9322 138.649 74.9618 139.154 76.3206 139.154C77.5514 139.154 78.5199 138.817 79.206 138.152C79.8922 137.486 80.2419 136.544 80.2419 135.34C80.2419 134.176 79.9126 133.282 79.2666 132.676C78.6145 132.078 77.6439 131.768 76.3861 131.768Z" fill="white"/>
<path d="M51.7985 134.47C51.134 135.135 50.0466 135.135 49.3822 134.47C48.7112 133.799 48.7112 132.718 49.3822 132.047C50.0467 131.383 51.134 131.383 51.7985 132.047C52.4631 132.718 52.4631 133.799 51.7985 134.47Z" fill="white"/>
<path d="M95.7556 134.47C95.0846 135.135 94.0036 135.135 93.3392 134.47C92.6682 133.799 92.6682 132.718 93.3392 132.047C94.0037 131.383 95.0843 131.383 95.7556 132.047C96.4201 132.718 96.4201 133.799 95.7556 134.47Z" fill="white"/>
<path d="M65.7817 5.16641C64.3356 3.87496 63.0037 2.44227 61.8065 0.915413L61.788 0.888672L61.7696 0.915413C60.0074 3.1687 57.9424 5.17987 55.6487 6.90179L47.4023 26.9056C48.418 27.3226 49.3799 27.8339 50.2811 28.4325L65.7817 5.16641Z" fill="white"/>
<path d="M8.125 90.8744V104.852C8.125 107.381 8.30024 109.863 8.64336 112.297L34.1156 57.5929C33.174 57.1557 32.2727 56.6445 31.4319 56.0459L8.125 90.8744Z" fill="white"/>
<path d="M27.3705 51.9775L8.11328 64.4884V75.358L29.2472 54.2107C28.5545 53.5246 27.9356 52.778 27.3705 51.9775Z" fill="white"/>
<path d="M8.125 49.0761V56.206L25.8083 49.2309C25.3443 48.195 24.981 47.0986 24.7321 45.9619L8.125 49.0761Z" fill="white"/>
<path d="M35.1734 13.3746C30.7745 13.1997 28.3867 12.4531 28.3867 12.4531L34.178 27.1499C35.281 26.6455 36.4582 26.2621 37.6756 26.0065L35.1734 13.3746Z" fill="white"/>
<path d="M44.2996 25.9756L47.138 11.4873C45.1873 12.1868 43.1561 12.7047 41.0508 13.0209V25.6595C41.0483 25.6595 41.0575 25.6595 41.0508 25.6595C42.1606 25.6595 43.2503 25.7671 44.2996 25.9756Z" fill="white"/>
<path d="M54.9412 33.0539L84.3348 13.272C84.3348 13.272 79.1287 13.0567 73.129 10.1309L52.8359 30.5114C53.6163 31.2849 54.3224 32.1392 54.9412 33.0539Z" fill="white"/>
<path d="M24.7389 38.7761L8.125 35.7021V42.3948H24.342C24.342 42.3881 24.342 42.388 24.342 42.3809C24.342 41.1433 24.4834 39.933 24.7389 38.7761Z" fill="white"/>
<path d="M17.8136 7.71708C16.8986 7.08478 16.0044 6.41893 15.1569 5.69922L11.2422 12.6003L29.2619 30.5392C29.9343 29.8666 30.6743 29.2545 31.4545 28.7029L17.8136 7.71708Z" fill="white"/>
<path d="M7.20719 19.7207L3.26562 26.6689L25.8254 35.5072C26.2627 34.5387 26.7873 33.6239 27.3926 32.7629L7.20719 19.7207Z" fill="white"/>
<path d="M51.5426 39.8186C51.8786 39.8186 52.1464 39.5501 52.1464 39.2212C52.1464 38.8857 51.8777 38.6172 51.5426 38.6172C51.214 38.6172 50.9453 38.8857 50.9453 39.2212C50.9453 39.5501 51.214 39.8186 51.5426 39.8186Z" fill="white"/>
<path d="M48.2807 33.9468C48.2807 34.4849 48.2875 35.3727 48.2807 36.3144C48.2741 37.2023 48.1056 37.7067 46.4648 37.7404C46.653 38.0296 47.4535 38.1439 47.6754 38.1439C49.2696 38.1439 49.357 36.2135 49.357 36.2135V32.2383L47.709 33.301C48.0457 33.301 48.2807 33.5903 48.2807 33.9468Z" fill="white"/>
<path d="M38.6787 51.4845C38.3965 51.4845 38.1677 51.2559 38.1677 50.9734C38.1677 50.7582 38.3024 50.6168 38.4768 50.5026C38.5847 50.4017 38.6243 50.3277 38.6787 50.1998C38.7341 50.3277 38.7866 50.4017 38.8807 50.5026C39.0624 50.6102 39.1906 50.7582 39.1906 50.9734C39.1906 51.2559 38.961 51.4845 38.6787 51.4845ZM46.9395 49.8097L46.8933 49.8235C46.5972 49.8844 46.4026 50.1666 46.3482 50.207C46.0189 50.4357 44.8954 50.6577 44.7675 49.5209C44.7214 49.0501 45.1041 48.66 45.5211 48.66C45.9112 48.66 46.2276 49.003 46.2608 49.4402L46.3958 49.3867C46.8127 49.1782 46.8395 48.2164 46.5167 48.0415C46.8598 47.8061 46.8533 46.4473 46.1329 46.1043C45.9853 46.0305 45.5075 45.8285 45.5075 45.8285C45.5075 45.8285 46.0453 46.6424 46.0056 46.9854C45.9687 47.2813 45.8978 47.3352 45.6487 47.4226C45.4403 47.49 45.1579 47.537 44.8415 47.6312C44.7862 47.6451 44.3777 47.8465 44.3306 47.8801C43.8999 48.1827 43.6176 48.6872 43.6176 49.2522C43.6176 49.7029 43.7993 50.1132 44.0815 50.4159C43.5973 50.4159 42.03 50.4159 42.03 50.4159V45.7949L40.3215 47.0258H40.7319C40.9404 47.0258 41.0879 47.2007 41.0953 47.4496V50.4159H40.2478C40.1066 49.9652 39.77 49.6154 39.3263 49.3867C38.9767 49.2051 38.842 48.8218 38.6806 48.4316C38.5191 48.8285 38.3578 49.1782 38.035 49.3867C37.618 49.6289 37.2683 49.9719 37.1198 50.4159H36.0706V45.7949L34.3555 47.0258H34.7659C34.9808 47.0258 35.1293 47.2007 35.1293 47.4496V51.3441H37.1068V51.3302C37.3014 52.0163 37.9341 52.5208 38.6807 52.5208C39.4205 52.5208 40.0394 52.0298 40.2479 51.3572H47.4315C47.4315 51.3572 46.9335 50.3684 46.9409 49.9783L46.9395 49.8097Z" fill="white"/>
<path d="M50.1173 42.2466C50.1106 41.2914 49.848 40.7197 48.7788 40.7197H44.9179C44.5886 40.7197 44.3054 40.565 44.3054 40.3229V40.1211L43.2227 41.6815H48.8929C49.1281 41.6815 49.1888 42.0112 49.1888 42.2668C49.1888 42.3203 49.1821 42.3676 49.1821 42.4079C49.0207 42.4079 43.2227 42.4079 43.2227 42.4079V43.3496H50.1171L50.1173 42.2466Z" fill="white"/>
<path d="M52.1512 40.1357L50.5772 41.1514H50.7792C51.0411 41.1514 51.2229 41.3667 51.2229 41.6491V43.7007C51.1953 44.454 51.115 44.8306 49.7095 44.8777H49.6016L49.6569 44.9653C49.9059 45.2411 50.5443 45.3353 50.7533 45.342C52.1994 45.3282 52.1524 43.6874 52.1524 43.6874L52.1512 40.1357Z" fill="white"/>
<path d="M33.4372 44.1641C33.1086 44.1641 32.8398 44.4325 32.8398 44.7614C32.8398 45.097 33.1086 45.3655 33.4372 45.3655C33.7731 45.3655 34.0345 45.097 34.0345 44.7614C34.0345 44.4325 33.7731 44.1641 33.4372 44.1641Z" fill="white"/>
<path d="M36.0616 43.3463C36.5726 43.3463 37.7497 43.3463 37.9582 43.3463C38.1335 43.3463 35.8867 40.5415 35.7656 40.2523C35.7656 40.2523 35.6649 39.9362 36.0818 39.9227C36.3844 40.1178 36.8687 40.7971 37.5011 41.6716C38.1329 42.5527 38.7185 43.3127 38.7185 43.3127L38.737 43.333H42.2548V39.3578L40.5665 40.4474H40.775C41.024 40.4474 41.2058 40.6626 41.2123 40.9452V42.4115H39.3827C39.3181 42.4447 38.4612 41.295 37.6877 40.1649C36.8935 39.0349 36.4972 38.1807 35.4344 38.8062C34.5867 39.3443 34.2035 39.8084 34.4793 40.3801L35.986 42.4115H31.0758C30.8203 42.4254 30.6044 41.9743 30.5712 41.7659L30.5344 41.5842L30.4513 41.7523C30.4513 41.7523 29.7448 43.0909 29.6775 43.259L29.6406 43.3466H31.3826C32.3782 43.3466 35.0283 43.3605 36.0507 43.3466" fill="white"/>
<path d="M39.6172 39.2212C39.6172 39.5501 39.8859 39.8186 40.221 39.8186C40.5496 39.8186 40.8183 39.5501 40.8183 39.2212C40.8183 38.8857 40.5496 38.6172 40.221 38.6172C39.885 38.6172 39.6172 38.8857 39.6172 39.2212Z" fill="white"/>
<path d="M42.3633 37.6266C42.3633 37.9622 42.632 38.2307 42.9606 38.2307C43.2892 38.2307 43.5644 37.9622 43.5644 37.6266C43.5644 37.2977 43.2892 37.0293 42.9606 37.0293C42.632 37.0293 42.3633 37.2977 42.3633 37.6266Z" fill="white"/>
<path d="M31.9256 44.1641C31.597 44.1641 31.3281 44.4325 31.3281 44.7614C31.3281 45.097 31.597 45.3655 31.9256 45.3655C32.2615 45.3655 32.5294 45.097 32.5294 44.7614C32.5294 44.4325 32.2606 44.1641 31.9256 44.1641Z" fill="white"/>
<path d="M46.9571 32.6289L45.3091 33.6917C45.6522 33.6917 45.8542 33.9809 45.8542 34.3374V35.3127C45.7601 35.5145 45.525 35.6154 45.2556 35.6154H34.1507C33.8813 35.6154 33.646 35.5144 33.552 35.3127V34.3374C33.552 33.9809 33.7541 33.6917 34.0972 33.6917L32.4492 32.6289V36.5436H46.9576L46.9571 32.6289Z" fill="white"/>
<path d="M57.7731 42.2423C57.7731 42.2893 57.7799 42.3364 57.7799 42.3834C57.7799 43.4933 57.6655 44.5829 57.457 45.6389L75.7053 49.2442L80.9114 42.2422L57.7731 42.2423Z" fill="white"/>
<path d="M41.9492 59.075C41.6531 59.0889 41.3571 59.1018 41.061 59.1018C39.8906 59.1018 38.7472 58.9739 37.6441 58.752L22.5234 120.714L37.4288 100.69L41.9492 59.075Z" fill="white"/>
<path d="M56.5297 48.7393C56.1127 49.7616 55.5947 50.7235 54.9961 51.6316L67.6415 60.0932L71.4754 54.9342L56.5297 48.7393Z" fill="white"/>
<path d="M52.8958 54.1846C52.1154 54.9648 51.2614 55.6711 50.3398 56.2831L59.871 70.5159L63.8663 65.1483L52.8958 54.1846Z" fill="white"/>
<path d="M47.4552 57.834C46.4664 58.2443 45.4238 58.5604 44.3477 58.7756L49.4529 84.5238L55.2845 76.6876L47.4552 57.834Z" fill="white"/>
<path d="M56.4844 35.9242C56.9013 36.9063 57.2242 37.9422 57.4396 39.0184L87.8421 32.9311L98.7387 18.2881L56.4844 35.9242Z" fill="white"/>
<path d="M121.577 30.0857H114.871V104.848C114.871 134.12 91.0535 157.938 61.7809 157.938C44.8375 157.938 27.2687 148.205 16.9708 133.125L109.47 8.82406L121.577 30.0857ZM109.571 6.6582L15.7936 132.681L15.5039 133.064L16.0352 133.811C26.5416 149.167 44.5006 159.095 61.7803 159.095C91.692 159.095 116.028 134.759 116.028 104.848V31.2426H123.568L109.571 6.6582Z" fill="white"/>
<path d="M1.99105 30.0865L15.3157 6.58504C21.1945 11.3472 28.5801 13.9637 36.1605 13.9637C46.1355 13.9637 55.458 9.54455 61.7874 1.8161C68.1101 9.54455 77.4327 13.9637 87.4211 13.9637C93.3739 13.9637 99.1786 12.3696 104.291 9.33604L14.8248 129.568C10.8159 121.98 8.70396 113.445 8.70396 104.849V30.0865H1.99105ZM106.355 6.57828C100.9 10.5939 94.1743 12.8067 87.4211 12.8067C77.5403 12.8067 68.3656 8.33383 62.2313 0.517942L61.7536 0L61.3163 0.558265C55.2089 8.34053 46.041 12.8067 36.1602 12.8067C28.6133 12.8067 21.2818 10.123 15.5309 5.25317L14.9996 4.8025L0 31.2434H7.54689V104.849C7.54689 113.875 9.82718 122.828 14.1387 130.738L14.2734 130.98C14.3472 131.128 14.4283 131.269 14.5086 131.41L14.7031 131.76L105.682 9.49741L106.906 7.78222L108.783 4.98406L106.355 6.57828Z" fill="white"/>
</svg>
