<svg width="244" height="76" viewBox="0 0 244 76" fill="none" xmlns="http://www.w3.org/2000/svg">
<path d="M84.2075 16.1012H86.6506V18.7861H84.2075V16.1012ZM80.3141 16.1012H82.7841V18.7861H80.3141V16.1012ZM96.7908 30.2615V32.6134H81.1573C79.3751 32.6134 77.9218 32.4765 76.8004 32.1998C75.6761 31.925 74.8268 31.4415 74.2556 30.7488C73.6846 30.0562 73.4004 29.0949 73.4004 27.8582C73.4004 27.0815 73.4902 26.1319 73.6725 25.0082C73.8579 23.8846 74.0672 22.8127 74.3004 21.7989L76.4774 21.9167L76.2172 23.9615C75.9839 25.511 75.8673 26.6088 75.8673 27.2518C75.8673 28.3229 76.241 29.0909 76.9886 29.5631C77.7332 30.0324 79.0729 30.2675 81.0136 30.2675H89.7573V18.7921H92.5204V30.2675L96.7908 30.2615Z" fill="white"/>
<path d="M103.211 34.8263H105.654V37.4793H103.211V34.8263ZM99.3208 34.8263H101.788V37.4793H99.3208V34.8263ZM103.881 18.7861V32.6134H96.791V30.2615H101.121V18.7861H103.881Z" fill="white"/>
<path d="M110.738 28.9756C111.205 29.8324 112.182 30.2608 113.675 30.2608H116.785V20.8013C115.834 20.6701 114.99 20.6108 114.255 20.6108C112.685 20.6108 111.596 21.0022 110.986 21.7843C110.376 22.5689 110.062 23.8725 110.041 25.7002C110.041 27.0268 110.275 28.1182 110.738 28.9756ZM123.118 32.6139H119.485C119.347 34.789 118.878 36.4777 118.073 37.6738C117.272 38.8724 115.95 39.4725 114.111 39.4725C113.295 39.4725 111.767 39.3275 109.518 39.032V36.6802C111.417 36.9758 112.879 37.1206 113.905 37.1206C114.566 37.1206 115.095 37.0155 115.505 36.7908C115.911 36.5676 116.222 36.1299 116.435 35.4758C116.647 34.8216 116.752 33.8684 116.752 32.6143H112.775C110.526 32.6143 109.049 31.96 108.34 30.6505C107.634 29.3416 107.281 27.7194 107.281 25.7817C107.299 23.9569 107.508 22.5002 107.906 21.414C108.304 20.3245 108.962 19.5256 109.883 19.0216C110.801 18.5141 112.057 18.2594 113.645 18.2594C114.536 18.2594 115.558 18.3266 116.71 18.4385C117.864 18.5563 118.809 18.6907 119.542 18.8408V30.261H123.118L123.118 32.6139Z" fill="white"/>
<path d="M142.935 30.2616V32.6135H123.115V30.2616H136.135V26.4182C136.135 25.3865 135.911 24.4921 135.468 23.7361C135.023 22.9778 134.341 22.5915 133.435 22.5744H125.588L123.932 20.4717L125.528 17.5116C125.896 16.8308 126.425 16.0315 127.113 15.1192C127.801 14.2071 128.483 13.364 129.162 12.5876L131.135 13.668C129.837 15.5101 128.812 17.1232 128.055 18.5077L127.098 20.2224H133.755C135.594 20.2224 136.907 20.8425 137.69 22.076C138.473 23.3128 138.865 24.7697 138.865 26.4467V30.2612L142.935 30.2616Z" fill="white"/>
<path d="M149.269 12.9209V32.6134H142.936V30.2614H146.509V12.9209H149.269Z" fill="white"/>
<path d="M154.324 12.9209H157.084V32.6134H154.324V12.9209Z" fill="white"/>
<path d="M175.653 13.5293H178.096V16.2142H175.653V13.5293ZM171.759 13.5293H174.229V16.2142H171.759V13.5293ZM170.465 28.3559C170.77 29.0366 171.254 29.5255 171.933 29.8214C172.612 30.117 173.542 30.2618 174.723 30.2618H178.296V21.0513C176.747 20.9462 175.518 20.8857 174.606 20.8857C173.464 20.8857 172.558 21.0392 171.891 21.3429C171.221 21.6465 170.743 22.1367 170.453 22.8083C170.163 23.4799 170.013 24.3869 170.013 25.531C170.013 26.7295 170.166 27.6724 170.465 28.3559ZM184.253 30.2607V32.6126H174.406C172.621 32.6126 171.215 32.3893 170.192 31.9489C169.164 31.5059 168.419 30.7794 167.953 29.7622C167.486 28.749 167.256 27.3466 167.256 25.5595C167.256 23.8073 167.477 22.4199 167.923 21.3975C168.368 20.3724 169.095 19.6366 170.103 19.1817C171.11 18.7326 172.495 18.5062 174.259 18.5062C175.109 18.5062 176.284 18.5463 177.773 18.6113C179.265 18.6902 180.351 18.7587 181.029 18.8345V30.2548L184.253 30.2607Z" fill="white"/>
<path d="M190.107 25.4768C190.932 26.6754 192.072 27.7099 193.522 28.576C194.993 27.6902 196.148 26.6557 196.982 25.4624C197.813 24.2744 198.229 23.0439 198.229 21.7724C196.447 21.1637 194.88 20.8577 193.522 20.8577C192.185 20.8577 190.636 21.1653 188.875 21.7724C188.875 23.0445 189.285 24.2807 190.107 25.4768ZM202.532 30.2616V32.6135H199.248C198.298 32.6135 197.323 32.5085 196.327 32.2797C195.328 32.0591 194.395 31.7555 193.522 31.3676C192.688 31.7551 191.779 32.0603 190.792 32.2797C189.805 32.503 188.845 32.6135 187.915 32.6135H184.252V30.2616H187.828C188.815 30.2616 189.832 30.088 190.879 29.7374C189.464 28.6689 188.337 27.4724 187.493 26.1546C186.65 24.8396 186.211 23.6347 186.172 22.5456L186.082 20.4429C187.245 19.8342 188.462 19.3574 189.73 19.0064C191.001 18.6558 192.254 18.4795 193.492 18.4795C194.733 18.4795 195.995 18.6573 197.287 19.0064C198.573 19.3576 199.808 19.8343 200.992 20.4429L200.875 22.5456C200.835 23.6351 200.396 24.8396 199.55 26.1546C198.71 27.4724 197.57 28.6686 196.138 29.7374C197.202 30.088 198.228 30.2616 199.218 30.2616H202.532Z" fill="white"/>
<path d="M209.695 28.2864C209.782 29.1065 209.874 29.7664 209.973 30.2616H217.12V25.6448C217.12 23.9476 216.746 22.7253 216.002 21.9781C215.254 21.2303 214.067 20.8571 212.44 20.8571C211.606 20.8571 210.795 20.9487 210 21.105C209.71 22.8023 209.566 24.3721 209.566 25.8087C209.566 26.6367 209.608 27.4667 209.695 28.2864ZM218.238 20.1956C219.333 21.3193 219.88 23.1528 219.88 25.6987V32.6124H202.533V30.2604H207.24C206.968 28.7486 206.833 27.2657 206.833 25.8087C206.833 24.6469 206.921 23.4714 207.097 22.281C207.267 21.0929 207.461 20.0999 207.674 19.3093C208.2 19.1068 208.918 18.9219 209.842 18.7563C210.76 18.5905 211.753 18.5061 212.82 18.5061C215.338 18.5061 217.144 19.0693 218.238 20.1956Z" fill="white"/>
<path d="M229.555 30.2614V32.6134H224.035V12.9209H226.792V30.2614H229.555Z" fill="white"/>
<path d="M236.56 34.8265H239.203V37.5374H236.56V34.8265ZM242.427 19.5741C243.3 20.2812 243.737 21.4858 243.737 23.1802V32.6137H229.557V30.2617H241.007V23.4582C241.007 21.6885 240.056 20.8022 238.157 20.8022C237.305 20.8022 235.298 20.953 232.14 21.2453L232.053 19.3945C233.1 19.1539 234.275 18.9453 235.585 18.7717C236.891 18.594 237.971 18.5076 238.823 18.5076C240.354 18.5076 241.557 18.8642 242.427 19.5741Z" fill="white"/>
<path d="M77.6452 56.2045L75.2888 56.2446V62.0141H74.3379V49.4121H75.2888V55.4134L77.5675 55.3853L81.5386 49.4043H82.639L78.4226 55.7502L82.9052 62.0063H81.7479L77.6452 56.2045Z" fill="white"/>
<path d="M86.3336 61.2672C85.6039 60.6652 85.2422 59.7003 85.2422 58.3766V49.4038H86.2111V58.3941C86.2111 60.3693 87.3504 61.3569 89.629 61.3569C90.8461 61.3569 91.7492 61.1216 92.3383 60.6526C92.9274 60.1833 93.2204 59.4277 93.2204 58.3934V49.4031H94.1533V58.3759C94.1533 59.6996 93.7825 60.6641 93.041 61.2665C92.2994 61.8725 91.175 62.1707 89.6679 62.1707C88.1727 62.1707 87.0632 61.8731 86.3336 61.2672Z" fill="white"/>
<path d="M96.832 49.4038H97.8159L100.325 61.1775H100.992L103.841 49.5515H104.963L107.813 61.1775H108.477L110.986 49.4038H111.954L109.2 62.0087H107.089L104.392 50.7448L101.713 62.0087H99.6043L96.832 49.4038Z" fill="white"/>
<path d="M118.701 50.2177H117.711L115.394 57.5078H120.998L118.701 50.2177ZM121.246 58.3564H115.148L114.006 62.0087H113.076L116.991 49.4038H119.404L123.318 62.0087H122.385L121.246 58.3564Z" fill="white"/>
<path d="M125.92 49.4066H126.871V62.0087H125.92V49.4066Z" fill="white"/>
<path d="M133.481 50.235H129.189V49.4031H138.687V50.235H134.432V62.0087H133.481L133.481 50.235Z" fill="white"/>
<path d="M146.58 61.2672C145.85 60.6652 145.488 59.7003 145.488 58.3766V49.4038H146.457V58.3941C146.457 60.3693 147.596 61.3569 149.875 61.3569C151.095 61.3569 151.995 61.1216 152.581 60.6526C153.173 60.1833 153.467 59.4277 153.467 58.3934V49.4031H154.397V58.3759C154.397 59.6996 154.029 60.6641 153.287 61.2665C152.546 61.8725 151.421 62.1707 149.914 62.1707C148.419 62.1707 147.309 61.8731 146.58 61.2672Z" fill="white"/>
<path d="M167.414 49.4038V62.0087H165.438L159.433 50.2177H159.074V62.0087H158.123V49.4038H160.118L166.065 61.1948H166.484V49.4038H167.414Z" fill="white"/>
<path d="M171.215 49.4066H172.166V62.0087H171.215V49.4066Z" fill="white"/>
<path d="M174.746 49.4038H175.733L179.097 61.1948H180.257L183.618 49.4038H184.59L180.96 62.0087H178.376L174.746 49.4038Z" fill="white"/>
<path d="M188.16 50.2175V55.1731H193.916V55.9865H188.16V61.1942H195.056V62.0078H187.209V49.4028H195.056V50.2163L188.16 50.2175Z" fill="white"/>
<path d="M202.903 56.0973C204.931 56.0973 205.944 55.1182 205.944 53.1661C205.944 52.1646 205.693 51.4283 205.194 50.9503C204.691 50.4757 203.923 50.2354 202.885 50.2354H199.049V56.0977L202.903 56.0973ZM198.098 49.4038H202.885C204.255 49.4038 205.269 49.7048 205.932 50.2988C206.599 50.8954 206.934 51.8279 206.934 53.0937C206.934 55.1674 206.052 56.3898 204.291 56.7635L207.123 62.0087H206.058L203.304 56.9285H199.049V62.0087H198.098L198.098 49.4038Z" fill="white"/>
<path d="M210.22 61.9016L209.535 61.8224L209.628 60.9879C211.38 61.2045 212.693 61.315 213.581 61.315C215.686 61.315 216.733 60.345 216.733 58.4041C216.733 57.8745 216.653 57.4592 216.488 57.1648C216.326 56.8692 216.015 56.6285 215.567 56.4407C215.118 56.2556 214.448 56.0901 213.56 55.9427C212.499 55.7624 211.676 55.5512 211.102 55.3105C210.525 55.0699 210.106 54.726 209.837 54.2788C209.571 53.8331 209.439 53.2183 209.439 52.434C209.439 51.3472 209.777 50.5397 210.456 50.0039C211.132 49.4649 212.182 49.1982 213.602 49.1982C214.64 49.1982 215.917 49.3035 217.436 49.5059L217.343 50.3364C215.543 50.1312 214.305 50.0288 213.62 50.0288C211.491 50.0288 210.426 50.8107 210.426 52.3778C210.426 53.0059 210.505 53.4699 210.666 53.771C210.821 54.0719 211.138 54.3126 211.608 54.4951C212.074 54.6753 212.846 54.8685 213.925 55.0749C214.885 55.2431 215.633 55.4457 216.165 55.6809C216.697 55.9162 217.086 56.2393 217.334 56.6482C217.579 57.0597 217.705 57.6128 217.705 58.3108C217.705 59.6145 217.376 60.5786 216.715 61.2043C216.057 61.8324 215.025 62.1452 213.62 62.1452C212.771 62.1452 211.637 62.0662 210.22 61.8931" fill="white"/>
<path d="M220.803 49.4065H221.751V62.0085H220.803V49.4065Z" fill="white"/>
<path d="M228.363 50.235H224.072V49.4031H233.57V50.235H229.314V62.0087H228.363V50.235Z" fill="white"/>
<path d="M238.754 56.6215L234.463 49.4038H235.581L239.229 55.6802L242.878 49.4038H243.999L239.726 56.6215V62.0087H238.754L238.754 56.6215Z" fill="white"/>
<path d="M41.4649 6.32659C36.5328 6.3838 32.1397 4.02172 29.3163 0.432444L29.3076 0.422852L29.2989 0.432444C26.4755 4.02172 22.0857 6.32659 17.1535 6.32659C13.357 6.32659 9.87958 4.95956 7.1902 2.69281L0.474609 14.4939H3.8563V49.5569C3.8563 54.0395 5.02396 58.2488 7.06895 61.9016L51.0581 2.98529C51.0581 2.98529 47.2681 6.25983 41.4649 6.32659Z" fill="#F2D81F"/>
<path d="M51.8802 3.53516L7.63086 62.8107C12.1898 69.6586 20.443 74.9233 29.3057 74.9233C43.3653 74.9233 54.7611 63.5673 54.7611 49.5568V14.4938H58.1428L51.8802 3.53516Z" fill="#49B0E7"/>
<path d="M37.7643 55.2794C38.1693 55.2728 38.6799 55.2859 39.0978 55.343C39.8635 55.4511 40.5622 55.5592 41.4299 55.5242C41.3372 55.3747 40.6675 55.219 40.492 55.1681C38.4023 54.5641 35.63 54.9328 33.9072 55.4765C33.5944 55.5782 33.2628 55.6418 33.0586 55.8357C33.8274 55.9852 35.228 55.6895 35.9681 55.5242C36.1691 55.4765 37.3846 55.2857 37.7643 55.2794Z" fill="#231F20"/>
<path d="M27.6387 55.0314C29.304 55.3715 31.8307 55.8325 33.3716 54.8597C31.5595 54.7421 29.4189 54.6244 27.6387 55.0314Z" fill="#231F20"/>
<path d="M17.9941 55.2763C18.3387 55.3685 19.5446 55.8739 20.339 55.9153C21.7714 55.9916 24.5279 54.9838 25.8614 55.0505C26.1389 55.0666 26.4038 55.2508 26.6685 55.1841C24.9235 54.1032 21.5928 55.2381 20.9228 55.3653C20.2497 55.4924 17.9941 55.2763 17.9941 55.2763Z" fill="#231F20"/>
<path d="M41.1172 54.8532C41.8669 54.8341 42.4794 54.9264 42.8176 54.9455C43.9469 54.9995 45.1082 54.9167 46.2631 55.0313C47.2904 55.1362 48.3208 55.292 49.3098 54.99C47.0033 54.0712 42.6134 54.583 41.1172 54.8532Z" fill="#231F20"/>
<path d="M36.1917 46.1011L34.488 41.3132L33.9648 41.6597L35.4802 46.7655L36.1917 46.1011Z" fill="white"/>
<path d="M33.7507 41.755C33.7681 41.7424 33.3105 42.0412 33.3105 42.0316C33.3061 41.9999 31.7759 50.8888 31.7695 50.8856C32.0949 50.9108 32.2672 50.946 32.4874 50.8695C33.1988 49.3403 34.2899 48.0337 35.3395 46.8447C35.3395 46.8447 33.7411 41.7423 33.7507 41.755Z" fill="white"/>
<path d="M25.5898 47.0039L29.5298 50.838C29.5298 50.838 29.8487 50.8128 29.9765 50.838C30.4041 50.927 30.5252 51.2132 30.7836 51.4643C31.0355 51.547 31.3355 51.4991 31.4982 51.3753C31.5156 51.3276 33.0679 42.1812 33.0679 42.1812C30.5411 43.7421 25.5898 47.0039 25.5898 47.0039Z" fill="white"/>
<path d="M36.9984 45.4842C36.9984 45.4842 37.225 41.2368 40.6353 37.5426C40.6527 37.4981 34.6152 41.2178 34.6152 41.2178L36.2965 46.0151L36.9984 45.4842Z" fill="white"/>
<path d="M44.7605 41.0334C44.7822 41.0334 41.2161 43.2175 41.2384 43.2175C41.3724 43.7421 42.9803 48.1802 43.0824 48.3042C43.0792 48.0085 44.7605 41.0334 44.7605 41.0334Z" fill="white"/>
<path d="M24.7449 47.5285C24.2855 47.9513 24.209 48.9973 24.1133 50.5328L26.8314 50.6982C26.8314 50.6982 25.7563 49.7603 26.305 49.188C27.4248 49.471 27.5683 50.9588 28.9497 50.838C28.9541 50.6854 25.3926 47.1057 25.3926 47.1057C25.3926 47.1057 24.9684 47.3219 24.7449 47.5285Z" fill="white"/>
<path d="M40.1874 44.1238C39.8746 44.9663 37.4055 51.7284 37.3672 51.7252C38.3338 51.8873 39.342 51.7348 40.3054 51.6521C40.5382 51.6329 40.717 51.6647 40.9275 51.5789C41.1412 51.4931 41.3422 51.3977 41.5592 51.3246C41.805 51.2388 42.1366 51.2356 42.2036 50.9177C42.2676 50.6252 40.516 44.9345 40.3501 43.755C40.3371 43.6628 40.1905 44.1174 40.1874 44.1238Z" fill="white"/>
<path d="M40.5841 43.6119C40.5841 43.6119 42.4217 50.8827 42.5589 50.9781C42.6642 51.0449 43.6691 51.0129 43.6341 50.8827C43.296 49.5888 41.0021 43.3831 41.0021 43.3831C40.9381 43.3831 40.5841 43.6119 40.5841 43.6119Z" fill="white"/>
<path d="M39.83 44.0187C39.6164 44.3366 36.4132 51.3944 36.3398 51.6741C36.5408 51.7028 36.9268 51.7059 37.1278 51.6963C37.1626 51.5183 40.1172 43.8215 40.1172 43.8215L39.83 44.0187Z" fill="white"/>
<path d="M32.7383 50.8825C32.7383 50.8825 33.7368 51.512 33.9155 51.5596C34.1356 51.6137 35.9764 51.725 36.0785 51.6487C36.1868 51.5692 39.339 44.5909 39.4921 44.2507C35.4532 46.2727 33.9634 48.7461 32.7383 50.8825Z" fill="white"/>
<path d="M26.3048 49.1881C25.7561 49.7604 26.8312 50.6982 26.8312 50.6982L24.1131 50.5329C24.2088 48.9974 24.2853 47.9514 24.7447 47.5286C24.9679 47.322 25.3924 47.1058 25.3924 47.1058C25.3924 47.1058 28.9591 50.6855 28.9495 50.8381C27.5681 50.9589 27.4246 49.4711 26.3048 49.1881ZM33.0682 42.1813C33.0682 42.1813 31.5145 51.3277 31.4986 51.3722C31.3359 51.5026 31.036 51.5471 30.7839 51.4644C30.5255 51.2133 30.4041 50.9271 29.9768 50.8381C29.8493 50.8129 29.5302 50.8381 29.5302 50.8381L25.5902 47.0041C25.5902 47.0041 30.5415 43.7391 33.0682 42.1813ZM33.3105 42.0318C33.3105 42.0414 33.7667 41.7457 33.7508 41.7552C33.7421 41.7456 35.3396 46.8451 35.3396 46.8451C34.29 48.0341 33.1989 49.3407 32.4874 50.8699C32.2673 50.9462 32.095 50.9112 31.7696 50.886C31.774 50.8891 33.3042 42 33.3105 42.0318ZM34.4878 41.3135L36.1914 46.1013L35.48 46.7626L33.9646 41.66L34.4878 41.3135ZM40.6355 37.543C37.2218 41.2372 36.9985 45.4846 36.9985 45.4846L36.2967 46.0155L34.6154 41.2181C34.6154 41.2181 40.6546 37.4985 40.6355 37.543ZM39.4933 44.2479C39.3402 44.5912 36.1882 51.5695 36.0829 51.649C35.9776 51.7253 34.1368 51.6142 33.9167 51.56C33.7379 51.5123 32.7395 50.8828 32.7395 50.8828C33.9646 48.7464 35.4544 46.273 39.4933 44.2479ZM39.8314 44.019L40.1185 43.8218C40.1185 43.8218 37.1643 51.5154 37.1292 51.6967C36.9282 51.7062 36.5422 51.7032 36.3412 51.6775C36.4112 51.3977 39.7388 44.1557 39.8314 44.019ZM40.3514 43.755C40.5171 44.9345 42.2687 50.6252 42.2049 50.9177C42.1379 51.2356 41.806 51.2388 41.5605 51.3246C41.3434 51.3977 41.1424 51.4931 40.9288 51.579C40.7182 51.6648 40.5394 51.633 40.3067 51.6521C39.3433 51.7347 38.3351 51.8874 37.3684 51.7252C37.4076 51.7284 39.876 44.9663 40.1887 44.1238C40.1918 44.1207 40.3388 43.6628 40.3514 43.755ZM41.0022 43.3831C41.0022 43.3831 43.296 49.5888 43.6342 50.8827C43.669 51.0163 42.6643 51.0449 42.559 50.9781C42.4185 50.8859 40.5842 43.612 40.5842 43.612C40.5842 43.612 40.9382 43.3831 41.0022 43.3831ZM44.7605 41.0305C44.7605 41.0305 43.0792 48.0087 43.0824 48.3044C42.9801 48.1804 41.3724 43.7423 41.2384 43.2178C41.2166 43.2178 44.7828 41.0305 44.7605 41.0305ZM44.6617 53.337C44.8118 53.0191 45.0254 52.7107 45.2583 52.4151C45.5867 51.9954 45.9569 51.6012 46.2313 51.2388C46.2661 51.1943 46.4545 51.0417 46.3205 50.9717C45.7239 50.943 45.0061 51.0322 44.4861 50.9272C44.5979 50.7111 44.7476 50.4948 44.8881 50.3041C45.0382 50.1006 45.1848 49.913 45.3379 49.7255C45.6346 49.344 45.9441 48.9529 46.2759 48.6096C47.0862 48.9847 48.4389 48.9116 48.3368 47.7608C47.6158 47.8561 47.3223 47.5191 46.9043 47.3125C46.1163 48.3616 45.2167 49.5284 44.4414 50.5266C44.3331 50.6633 44.2565 50.9113 44.0394 50.8827C43.647 50.2501 43.2164 48.6128 43.1972 48.5619C43.1755 48.4983 45.1114 40.5695 45.1146 40.5759C45.1114 40.5693 41.1905 43.0302 41.1682 43.0302C41.0181 42.4897 40.7949 41.8444 40.6354 41.3325C40.6528 41.3325 39.6081 43.9394 39.6081 43.9394L37.1261 45.3669C37.1261 45.3669 37.7514 40.2389 41.484 36.9198C41.5289 36.8815 41.5576 36.8276 41.4392 36.8276C39.9557 37.7337 34.5322 41.0146 34.5227 40.9637C34.5195 40.9446 33.7761 38.6398 33.7825 38.6588C33.8217 38.6397 33.1923 41.7299 33.17 41.7744C33.1918 41.7744 25.9376 46.2634 24.5147 47.3602C23.8288 47.8848 23.8065 50.7937 23.8065 50.7937L27.1116 50.9717C27.3861 51.331 27.721 51.6489 28.0081 51.9986C28.1199 52.1353 28.2313 52.2752 28.34 52.4151C28.5123 52.6344 28.678 52.8633 28.8122 53.1145C28.2634 53.4133 27.7498 53.7281 27.0671 53.8266C24.8148 54.1541 21.4841 52.9937 19.6465 54.2017C20.929 54.1159 22.1062 53.8616 23.0537 54.0078C23.3474 54.0523 24.668 54.2113 24.9615 54.2749C25.3604 54.3607 26.0685 54.4307 26.4992 54.4434C28.9174 54.4942 31.4219 53.6391 33.6933 53.9156C34.7781 54.0492 35.8851 54.3512 36.906 54.2908C38.4565 54.2018 39.8953 54.0587 41.4298 53.9919C44.0682 53.8775 46.5726 53.5659 49.1854 53.8743C48.1996 52.946 46.2058 53.2575 44.6617 53.337Z" fill="#231F20"/>
<path d="M42.0795 63.9839C42.0795 64.394 41.9647 64.7119 41.7415 64.9281C41.5183 65.1506 41.1737 65.2587 40.7206 65.2587C40.2964 65.2587 39.9869 65.0775 39.7731 64.6992C39.5595 64.3209 39.4447 63.7963 39.4351 63.1382L39.5852 63.0651C39.7287 63.011 39.9202 62.9538 40.1722 62.8934C40.4241 62.8362 40.6316 62.8076 40.8103 62.8076C41.2218 62.8076 41.5377 62.9061 41.7546 63.1001C41.9682 63.2908 42.0795 63.5896 42.0795 63.9839ZM42.1918 62.709C41.8824 62.4261 41.4229 62.2799 40.8264 62.2799C40.638 62.2799 40.4148 62.3116 40.1564 62.3752C39.9045 62.4357 39.7002 62.496 39.547 62.5596L39.4448 62.6009C39.4622 62.016 39.5884 61.555 39.8307 61.2275C40.0891 60.8842 40.44 60.7157 40.9058 60.7157C41.3524 60.7157 41.8182 60.7444 42.2904 60.8015L42.3639 60.8111L42.4244 60.3151L42.1468 60.2706C41.7609 60.2261 41.3556 60.207 40.9441 60.207C40.2773 60.207 39.7573 60.4391 39.3999 60.9001C39.0458 61.3579 38.8672 62.0573 38.8672 62.9792C38.8672 63.9044 39.0268 64.607 39.3393 65.0648C39.6617 65.5321 40.1497 65.7706 40.7941 65.7706C41.3748 65.7706 41.8373 65.6116 42.1628 65.2969C42.4882 64.9853 42.654 64.537 42.654 63.968C42.654 63.418 42.4982 62.9952 42.1918 62.709Z" fill="#231F20"/>
<path d="M25.7871 61.4342L26.0486 61.8634L27.4555 60.9414V65.6975H28.0042V60.277H27.5225L25.7871 61.4342Z" fill="#231F20"/>
<path d="M32.9441 62.8459L32.7462 62.9096C32.2804 63.0717 31.8624 63.1512 31.4987 63.1512C30.6788 63.1512 30.2833 62.7824 30.2833 62.0226C30.2833 61.6188 30.3981 61.2945 30.6248 61.0656C30.8514 60.8336 31.1703 60.7159 31.5691 60.7159C32.456 60.7159 32.9058 61.4121 32.9441 62.8459ZM31.5435 60.2073C31.1799 60.2073 30.8576 60.2804 30.5833 60.4298C30.3088 60.5792 30.092 60.7922 29.9356 61.0656C29.7856 61.3358 29.709 61.6569 29.709 62.0225C29.709 62.5694 29.8556 62.9858 30.1493 63.2592C30.4394 63.5327 30.8862 63.6693 31.4732 63.6693C31.9103 63.6693 32.4016 63.5708 32.9312 63.3705C32.8877 64.6422 32.3824 65.2589 31.3839 65.2589C30.9597 65.2589 30.5065 65.2302 30.0408 65.1731L29.9642 65.1635L29.9068 65.6563L30.1748 65.6911C30.6214 65.742 31.0298 65.7706 31.3839 65.7706C32.0953 65.7706 32.6313 65.5513 32.9854 65.122C33.333 64.6992 33.5118 64.0157 33.5118 63.0906C33.5118 61.1767 32.8484 60.2073 31.5435 60.2073Z" fill="#231F20"/>
<path d="M37.4857 63.9839C37.4857 64.394 37.3709 64.7119 37.1477 64.9281C36.9245 65.1506 36.5798 65.2588 36.1268 65.2588C35.7027 65.2588 35.3931 65.0776 35.1793 64.6992C34.9657 64.3209 34.8509 63.7963 34.8413 63.1383L34.9944 63.0651C35.1349 63.0111 35.3264 62.9538 35.5782 62.8934C35.8301 62.8362 36.0377 62.8076 36.2163 62.8076C36.6279 62.8076 36.9469 62.9061 37.1607 63.1001C37.3777 63.2909 37.4857 63.5897 37.4857 63.9839ZM36.2323 62.2799C36.0439 62.2799 35.8208 62.3116 35.5623 62.3752C35.3105 62.4357 35.1061 62.496 34.953 62.5596L34.8507 62.6009C34.8681 62.016 34.9943 61.555 35.2401 61.2275C35.4955 60.8842 35.8462 60.7157 36.312 60.7157C36.7587 60.7157 37.2244 60.7444 37.6966 60.8015L37.7702 60.8111L37.8306 60.3151L37.5531 60.2706C37.1672 60.2261 36.7619 60.207 36.3503 60.207C35.6835 60.207 35.1635 60.4391 34.8062 60.9001C34.4521 61.3579 34.2734 62.0573 34.2734 62.9793C34.2734 63.9044 34.4331 64.607 34.7456 65.0648C35.0679 65.5321 35.5559 65.7706 36.2004 65.7706C36.7842 65.7706 37.2436 65.6116 37.569 65.2969C37.8944 64.9821 38.0603 64.5371 38.0603 63.968C38.0603 63.418 37.9042 62.9952 37.5977 62.709C37.2884 62.4261 36.8289 62.2799 36.2323 62.2799Z" fill="#231F20"/>
<path d="M24.5713 63.5612C24.2554 63.876 23.7386 63.876 23.4228 63.5612C23.1039 63.2433 23.1039 62.7315 23.4228 62.4136C23.7386 62.0988 24.2554 62.0988 24.5713 62.4136C24.8871 62.7315 24.8871 63.2433 24.5713 63.5612Z" fill="#231F20"/>
<path d="M45.4209 63.5612C45.102 63.876 44.5882 63.876 44.2724 63.5612C43.9535 63.2433 43.9535 62.7315 44.2724 62.4136C44.5882 62.0988 45.1019 62.0988 45.4209 62.4136C45.7367 62.7315 45.7367 63.2433 45.4209 63.5612Z" fill="#231F20"/>
<path d="M31.2017 2.4415C30.5158 1.83111 29.8841 1.15396 29.3163 0.43229L29.3076 0.419678L29.2988 0.43229C28.463 1.49731 27.4836 2.44789 26.3957 3.26175L22.4844 12.7166C22.9661 12.9137 23.4223 13.1553 23.8499 13.4382L31.2017 2.4415Z" fill="#231F20"/>
<path d="M3.85352 42.9507V49.557C3.85352 50.7524 3.93659 51.9255 4.09929 53.0764L16.1809 27.2202C15.7343 27.0136 15.3068 26.772 14.908 26.489L3.85352 42.9507Z" fill="#231F20"/>
<path d="M12.9854 24.5686L3.85156 30.4819V35.6194L13.8755 25.6241C13.547 25.2998 13.2534 24.9469 12.9854 24.5686Z" fill="#231F20"/>
<path d="M3.85352 23.1953V26.5653L12.2408 23.2685C12.0206 22.7789 11.8484 22.2607 11.7304 21.7234L3.85352 23.1953Z" fill="#231F20"/>
<path d="M16.6819 6.32021C14.5955 6.23755 13.4629 5.88464 13.4629 5.88464L16.2097 12.8311C16.733 12.5927 17.2913 12.4115 17.8687 12.2907L16.6819 6.32021Z" fill="#231F20"/>
<path d="M21.0116 12.2781L22.3579 5.43018C21.4327 5.76081 20.4693 6.00561 19.4707 6.15503V12.1287C19.4695 12.1287 19.4739 12.1287 19.4707 12.1287C19.9971 12.1287 20.5139 12.1795 21.0116 12.2781Z" fill="#231F20"/>
<path d="M26.0591 15.6224L40.0007 6.27251C40.0007 6.27251 37.5314 6.17076 34.6857 4.78784L25.0605 14.4207C25.4308 14.7863 25.7656 15.1901 26.0591 15.6224Z" fill="#231F20"/>
<path d="M11.7335 18.3279L3.85352 16.875V20.0383H11.5453C11.5453 20.0351 11.5453 20.0351 11.5453 20.0317C11.5453 19.4468 11.6121 18.8747 11.7335 18.3279Z" fill="#231F20"/>
<path d="M8.44697 3.64661C8.01324 3.34778 7.58879 3.03304 7.18681 2.69287L5.33008 5.95471L13.8768 14.4335C14.1957 14.1156 14.5468 13.8263 14.9169 13.5656L8.44697 3.64661Z" fill="#231F20"/>
<path d="M3.41642 9.32129L1.54688 12.6054L12.2471 16.7828C12.4547 16.325 12.7034 15.8926 12.9905 15.4857L3.41642 9.32129Z" fill="#231F20"/>
<path d="M24.4481 18.8208C24.6078 18.8208 24.7353 18.6936 24.7353 18.5378C24.7353 18.3789 24.6078 18.2517 24.4481 18.2517C24.292 18.2517 24.1641 18.3789 24.1641 18.5378C24.1641 18.6936 24.2915 18.8208 24.4481 18.8208Z" fill="#231F20"/>
<path d="M22.8965 16.0453C22.8965 16.2996 22.8997 16.7192 22.8965 17.1643C22.8933 17.584 22.8134 17.8224 22.0352 17.8383C22.1243 17.975 22.5041 18.0291 22.6094 18.0291C23.3655 18.0291 23.407 17.1167 23.407 17.1167V15.2378L22.6253 15.7401C22.785 15.7401 22.8965 15.8768 22.8965 16.0453Z" fill="#231F20"/>
<path d="M18.3475 24.3333C18.2135 24.3333 18.1052 24.2252 18.1052 24.0917C18.1052 23.99 18.1691 23.9232 18.2518 23.8692C18.3027 23.8215 18.3218 23.7865 18.3475 23.7261C18.3736 23.7865 18.3984 23.8215 18.4432 23.8692C18.5293 23.92 18.5898 23.99 18.5898 24.0917C18.5898 24.2252 18.4815 24.3333 18.3475 24.3333ZM22.2652 23.5417L22.2434 23.5483C22.1029 23.577 22.0107 23.7104 21.985 23.7295C21.8288 23.8376 21.2959 23.9425 21.2353 23.4052C21.2136 23.1827 21.395 22.9983 21.5925 22.9983C21.7774 22.9983 21.9275 23.1604 21.9436 23.3671L22.0072 23.3418C22.2052 23.2433 22.2178 22.7886 22.0646 22.706C22.2273 22.5947 22.2243 21.9525 21.8828 21.7904C21.8127 21.7556 21.5861 21.6601 21.5861 21.6601C21.5861 21.6601 21.8414 22.0447 21.8223 22.2069C21.8049 22.3468 21.7714 22.3722 21.6531 22.4135C21.5543 22.4453 21.4203 22.4675 21.2702 22.512C21.2441 22.5186 21.0501 22.6138 21.0279 22.6297C20.8239 22.7727 20.6899 23.0112 20.6899 23.2783C20.6899 23.4913 20.7761 23.6852 20.9101 23.8282C20.6804 23.8282 19.937 23.8282 19.937 23.8282V21.6442L19.1267 22.2259H19.3211C19.4199 22.2259 19.4904 22.3086 19.4934 22.4262V23.8282H19.0915C19.0245 23.6152 18.8648 23.4499 18.6544 23.3418C18.4886 23.256 18.4246 23.0748 18.3481 22.8904C18.2715 23.078 18.195 23.2433 18.0418 23.3418C17.8439 23.4563 17.6781 23.6185 17.6081 23.8283H17.1104V21.6442L16.2969 22.2259H16.4913C16.5936 22.2259 16.6636 22.3086 16.6636 22.4262V24.267H17.6015V24.2604C17.6942 24.5847 17.994 24.8232 18.3481 24.8232C18.6992 24.8232 18.9926 24.5911 19.0915 24.2732H22.4987C22.4987 24.2732 22.2625 23.8058 22.2659 23.6214L22.2652 23.5417Z" fill="#231F20"/>
<path d="M23.7699 19.9685C23.7667 19.517 23.6425 19.2468 23.1351 19.2468H21.3038C21.1476 19.2468 21.0136 19.1737 21.0136 19.0592V18.9639L20.5 19.7014H23.1894C23.3012 19.7014 23.3299 19.8572 23.3299 19.978C23.3299 20.0032 23.3267 20.0257 23.3267 20.0448C23.2502 20.0448 20.5001 20.0448 20.5001 20.0448V20.4899H23.7702L23.7699 19.9685Z" fill="#231F20"/>
<path d="M24.7344 18.9702L23.9878 19.4503H24.0836C24.208 19.4503 24.2941 19.552 24.2941 19.6855V20.6552C24.2811 21.0113 24.2432 21.1893 23.5763 21.2115H23.5254L23.5515 21.2529C23.6694 21.3832 23.9726 21.4277 24.0715 21.4309C24.7574 21.4243 24.7351 20.6488 24.7351 20.6488L24.7344 18.9702Z" fill="#231F20"/>
<path d="M15.8583 20.8745C15.7021 20.8745 15.5742 21.0017 15.5742 21.1575C15.5742 21.3164 15.7017 21.4436 15.8583 21.4436C16.018 21.4436 16.1424 21.3164 16.1424 21.1575C16.1424 21.0017 16.018 20.8745 15.8583 20.8745Z" fill="#231F20"/>
<path d="M17.1033 20.4866C17.3456 20.4866 17.9041 20.4866 18.0029 20.4866C18.086 20.4866 17.0204 19.1609 16.9629 19.0242C16.9629 19.0242 16.9151 18.8747 17.113 18.8684C17.2566 18.9606 17.4863 19.2817 17.7862 19.695C18.0859 20.1114 18.3636 20.4707 18.3636 20.4707L18.3723 20.4803H20.0408V18.6014L19.2401 19.1164H19.3389C19.4568 19.1164 19.5429 19.2182 19.5464 19.3517V20.0447H18.6786C18.6482 20.0608 18.2415 19.517 17.8747 18.9829C17.4983 18.4488 17.31 18.045 16.8059 18.3407C16.4039 18.595 16.2221 18.8144 16.3529 19.0846L17.0675 20.0447H14.7386C14.6172 20.0513 14.5154 19.8381 14.4993 19.7395L14.4819 19.6537L14.4427 19.7332C14.4427 19.7332 14.1078 20.3658 14.076 20.4453L14.0586 20.4866H14.8849C15.3571 20.4866 16.6183 20.4931 17.1033 20.4866Z" fill="#231F20"/>
<path d="M18.7949 18.5378C18.7949 18.6936 18.9224 18.8208 19.0821 18.8208C19.2382 18.8208 19.3661 18.6936 19.3661 18.5378C19.3661 18.3789 19.2387 18.2517 19.0821 18.2517C18.9224 18.2517 18.7949 18.3789 18.7949 18.5378Z" fill="#231F20"/>
<path d="M20.0918 17.7842C20.0918 17.9431 20.2193 18.0703 20.3759 18.0703C20.5321 18.0703 20.663 17.9431 20.663 17.7842C20.663 17.6284 20.5321 17.5012 20.3759 17.5012C20.2197 17.5012 20.0918 17.6284 20.0918 17.7842Z" fill="#231F20"/>
<path d="M15.1415 20.8744C14.9853 20.8744 14.8574 21.0016 14.8574 21.1573C14.8574 21.3163 14.9849 21.4435 15.1415 21.4435C15.3012 21.4435 15.4286 21.3163 15.4286 21.1573C15.4286 21.0016 15.3012 20.8744 15.1415 20.8744Z" fill="#231F20"/>
<path d="M22.2724 15.4224L21.4908 15.9247C21.6535 15.9247 21.7492 16.0613 21.7492 16.2298V16.6908C21.7044 16.7862 21.593 16.8339 21.4651 16.8339H16.1979C16.0705 16.8339 15.9587 16.7862 15.9138 16.6908V16.2298C15.9138 16.0613 16.0096 15.9247 16.1723 15.9247L15.3906 15.4224V17.2726H22.2721L22.2724 15.4224Z" fill="#231F20"/>
<path d="M27.4058 19.9651C27.4058 19.9873 27.409 20.0096 27.409 20.0319C27.409 20.5564 27.3546 21.0714 27.2559 21.5706L35.9111 23.2746L38.3804 19.9651L27.4058 19.9651Z" fill="#231F20"/>
<path d="M19.8991 27.9227C19.7586 27.9292 19.6185 27.9353 19.478 27.9353C18.9229 27.9353 18.3805 27.875 17.8573 27.77L10.6855 57.0565L17.7552 47.5921L19.8991 27.9227Z" fill="#231F20"/>
<path d="M26.8114 23.0363C26.6134 23.5195 26.3679 23.9741 26.084 24.4033L32.0818 28.4027L33.9002 25.9643L26.8114 23.0363Z" fill="#231F20"/>
<path d="M25.0912 25.6113C24.721 25.9801 24.316 26.3139 23.8789 26.6032L28.3995 33.3304L30.2946 30.7934L25.0912 25.6113Z" fill="#231F20"/>
<path d="M22.511 27.3347C22.042 27.5287 21.5476 27.6781 21.0371 27.7798L23.4585 39.9497L26.2245 36.2459L22.511 27.3347Z" fill="#231F20"/>
<path d="M26.793 16.9801C26.9909 17.4442 27.1441 17.9338 27.246 18.4425L41.6661 15.5653L46.8344 8.64429L26.793 16.9801Z" fill="#231F20"/>
<path d="M57.6682 14.2205H54.4875V49.5569C54.4875 63.3927 43.1906 74.6501 29.3065 74.6501C21.2701 74.6501 12.9371 70.0498 8.05274 62.9221L51.9257 4.17117L57.6682 14.2205ZM51.9735 3.14746L7.49447 62.7123L7.35742 62.8935L7.60931 63.2464C12.5925 70.5044 21.1106 75.1969 29.3065 75.1969C43.4937 75.1969 55.0362 63.6947 55.0362 49.5569V14.7673H58.6125L51.9735 3.14746Z" fill="#231F20"/>
<path d="M0.944482 14.2204L7.26447 3.11242C10.0528 5.36326 13.5557 6.59996 17.1512 6.59996C21.8824 6.59996 26.3042 4.51125 29.3062 0.858385C32.3051 4.51125 36.7268 6.59996 41.4644 6.59996C44.2878 6.59996 47.0411 5.84647 49.4657 4.41267L7.03157 61.2403C5.13018 57.6542 4.12839 53.6198 4.12839 49.5568V14.2204H0.944482ZM50.4451 3.10923C47.8578 5.00719 44.6675 6.05314 41.4644 6.05314C36.7779 6.05314 32.4263 3.93897 29.5168 0.244783L29.2901 0L29.0826 0.263868C26.1858 3.94216 21.8374 6.0531 17.1509 6.0531C13.5714 6.0531 10.0939 4.78463 7.36624 2.48292L7.11435 2.26993L0 14.7672H3.57951V49.5568C3.57951 53.8233 4.66102 58.0547 6.70597 61.7934L6.76993 61.9079C6.80473 61.9778 6.84346 62.0446 6.88175 62.1113L6.97438 62.2767L50.1263 4.48898L50.707 3.67829L51.5971 2.35576L50.4451 3.10923Z" fill="#231F20"/>
</svg>
